<?xml version="1.0" encoding="UTF-8" standalone="no"?>
<!DOCTYPE svg PUBLIC "-//W3C//DTD SVG 1.1//EN"
 "http://www.w3.org/Graphics/SVG/1.1/DTD/svg11.dtd">
<!-- Generated by graphviz version 2.43.0 (0)
 -->
<!-- Title: G Pages: 1 -->
<svg width="1555pt" height="613pt"
 viewBox="0.00 0.00 1555.20 613.20" xmlns="http://www.w3.org/2000/svg" xmlns:xlink="http://www.w3.org/1999/xlink">
<g id="graph0" class="graph" transform="scale(1 1) rotate(0) translate(21.6 591.6)">
<title>G</title>
<polygon fill="#111111" stroke="transparent" points="-21.6,21.6 -21.6,-591.6 1533.6,-591.6 1533.6,21.6 -21.6,21.6"/>
<!-- ../config/app.js -->
<g id="node1" class="node">
<title>../config/app.js</title>
<path fill="none" stroke="#cfffac" d="M1086.83,-156C1086.83,-156 998.17,-156 998.17,-156 994.33,-156 990.5,-152.17 990.5,-148.33 990.5,-148.33 990.5,-140.67 990.5,-140.67 990.5,-136.83 994.33,-133 998.17,-133 998.17,-133 1086.83,-133 1086.83,-133 1090.67,-133 1094.5,-136.83 1094.5,-140.67 1094.5,-140.67 1094.5,-148.33 1094.5,-148.33 1094.5,-152.17 1090.67,-156 1086.83,-156"/>
<text text-anchor="middle" x="1042.5" y="-140.8" font-family="Arial" font-size="14.00" fill="#cfffac">../config/app.js</text>
</g>
<!-- ../config/database/postgres.js -->
<g id="node2" class="node">
<title>../config/database/postgres.js</title>
<path fill="none" stroke="#cfffac" d="M1130.83,-115C1130.83,-115 954.17,-115 954.17,-115 950.33,-115 946.5,-111.17 946.5,-107.33 946.5,-107.33 946.5,-99.67 946.5,-99.67 946.5,-95.83 950.33,-92 954.17,-92 954.17,-92 1130.83,-92 1130.83,-92 1134.67,-92 1138.5,-95.83 1138.5,-99.67 1138.5,-99.67 1138.5,-107.33 1138.5,-107.33 1138.5,-111.17 1134.67,-115 1130.83,-115"/>
<text text-anchor="middle" x="1042.5" y="-99.8" font-family="Arial" font-size="14.00" fill="#cfffac">../config/database/postgres.js</text>
</g>
<!-- ../config/env.js -->
<g id="node3" class="node">
<title>../config/env.js</title>
<path fill="none" stroke="#cfffac" d="M1085.83,-74C1085.83,-74 999.17,-74 999.17,-74 995.33,-74 991.5,-70.17 991.5,-66.33 991.5,-66.33 991.5,-58.67 991.5,-58.67 991.5,-54.83 995.33,-51 999.17,-51 999.17,-51 1085.83,-51 1085.83,-51 1089.67,-51 1093.5,-54.83 1093.5,-58.67 1093.5,-58.67 1093.5,-66.33 1093.5,-66.33 1093.5,-70.17 1089.67,-74 1085.83,-74"/>
<text text-anchor="middle" x="1042.5" y="-58.8" font-family="Arial" font-size="14.00" fill="#cfffac">../config/env.js</text>
</g>
<!-- ../config/http.js -->
<g id="node4" class="node">
<title>../config/http.js</title>
<path fill="none" stroke="#cfffac" d="M1086.83,-197C1086.83,-197 998.17,-197 998.17,-197 994.33,-197 990.5,-193.17 990.5,-189.33 990.5,-189.33 990.5,-181.67 990.5,-181.67 990.5,-177.83 994.33,-174 998.17,-174 998.17,-174 1086.83,-174 1086.83,-174 1090.67,-174 1094.5,-177.83 1094.5,-181.67 1094.5,-181.67 1094.5,-189.33 1094.5,-189.33 1094.5,-193.17 1090.67,-197 1086.83,-197"/>
<text text-anchor="middle" x="1042.5" y="-181.8" font-family="Arial" font-size="14.00" fill="#cfffac">../config/http.js</text>
</g>
<!-- ../config/index.js -->
<g id="node5" class="node">
<title>../config/index.js</title>
<path fill="none" stroke="#c6c5fe" d="M797.33,-120C797.33,-120 699.67,-120 699.67,-120 695.83,-120 692,-116.17 692,-112.33 692,-112.33 692,-104.67 692,-104.67 692,-100.83 695.83,-97 699.67,-97 699.67,-97 797.33,-97 797.33,-97 801.17,-97 805,-100.83 805,-104.67 805,-104.67 805,-112.33 805,-112.33 805,-116.17 801.17,-120 797.33,-120"/>
<text text-anchor="middle" x="748.5" y="-104.8" font-family="Arial" font-size="14.00" fill="#c6c5fe">../config/index.js</text>
</g>
<!-- ../config/index.js&#45;&gt;../config/app.js -->
<g id="edge1" class="edge">
<title>../config/index.js&#45;&gt;../config/app.js</title>
<path fill="none" stroke="#757575" d="M805.11,-115.36C855.22,-121.53 928.74,-130.6 980.46,-136.97"/>
<polygon fill="#757575" stroke="#757575" points="980.14,-140.46 990.5,-138.21 981,-133.51 980.14,-140.46"/>
</g>
<!-- ../config/index.js&#45;&gt;../config/database/postgres.js -->
<g id="edge2" class="edge">
<title>../config/index.js&#45;&gt;../config/database/postgres.js</title>
<path fill="none" stroke="#757575" d="M805.11,-107.55C842.11,-106.91 891.87,-106.06 936.19,-105.3"/>
<polygon fill="#757575" stroke="#757575" points="936.51,-108.8 946.45,-105.13 936.39,-101.8 936.51,-108.8"/>
</g>
<!-- ../config/index.js&#45;&gt;../config/env.js -->
<g id="edge3" class="edge">
<title>../config/index.js&#45;&gt;../config/env.js</title>
<path fill="none" stroke="#757575" d="M805.21,-98.64C834.07,-93.62 869.89,-87.54 902,-82.5 928.02,-78.42 956.83,-74.23 981.48,-70.75"/>
<polygon fill="#757575" stroke="#757575" points="982,-74.21 991.41,-69.35 981.02,-67.28 982,-74.21"/>
</g>
<!-- ../config/index.js&#45;&gt;../config/http.js -->
<g id="edge4" class="edge">
<title>../config/index.js&#45;&gt;../config/http.js</title>
<path fill="none" stroke="#757575" d="M786.61,-120.08C809.69,-127.57 839.85,-137.87 866,-148.5 882.39,-155.16 885.05,-160.41 902,-165.5 927.13,-173.05 955.68,-177.78 980.38,-180.73"/>
<polygon fill="#757575" stroke="#757575" points="980.02,-184.22 990.35,-181.86 980.8,-177.26 980.02,-184.22"/>
</g>
<!-- core/index.js -->
<g id="node6" class="node">
<title>core/index.js</title>
<path fill="none" stroke="#c6c5fe" d="M528.33,-262C528.33,-262 451.67,-262 451.67,-262 447.83,-262 444,-258.17 444,-254.33 444,-254.33 444,-246.67 444,-246.67 444,-242.83 447.83,-239 451.67,-239 451.67,-239 528.33,-239 528.33,-239 532.17,-239 536,-242.83 536,-246.67 536,-246.67 536,-254.33 536,-254.33 536,-258.17 532.17,-262 528.33,-262"/>
<text text-anchor="middle" x="490" y="-246.8" font-family="Arial" font-size="14.00" fill="#c6c5fe">core/index.js</text>
</g>
<!-- core/repositories/doctorRepository.js -->
<g id="node7" class="node">
<title>core/repositories/doctorRepository.js</title>
<path fill="none" stroke="#cfffac" d="M858.33,-262C858.33,-262 638.67,-262 638.67,-262 634.83,-262 631,-258.17 631,-254.33 631,-254.33 631,-246.67 631,-246.67 631,-242.83 634.83,-239 638.67,-239 638.67,-239 858.33,-239 858.33,-239 862.17,-239 866,-242.83 866,-246.67 866,-246.67 866,-254.33 866,-254.33 866,-258.17 862.17,-262 858.33,-262"/>
<text text-anchor="middle" x="748.5" y="-246.8" font-family="Arial" font-size="14.00" fill="#cfffac">core/repositories/doctorRepository.js</text>
</g>
<!-- core/index.js&#45;&gt;core/repositories/doctorRepository.js -->
<g id="edge5" class="edge">
<title>core/index.js&#45;&gt;core/repositories/doctorRepository.js</title>
<path fill="none" stroke="#757575" d="M536.27,-250.5C559.98,-250.5 590.32,-250.5 620.56,-250.5"/>
<polygon fill="#757575" stroke="#757575" points="620.81,-254 630.81,-250.5 620.81,-247 620.81,-254"/>
</g>
<!-- core/use&#45;cases/affiliateDoctor.js -->
<g id="node8" class="node">
<title>core/use&#45;cases/affiliateDoctor.js</title>
<path fill="none" stroke="#cfffac" d="M844.33,-303C844.33,-303 652.67,-303 652.67,-303 648.83,-303 645,-299.17 645,-295.33 645,-295.33 645,-287.67 645,-287.67 645,-283.83 648.83,-280 652.67,-280 652.67,-280 844.33,-280 844.33,-280 848.17,-280 852,-283.83 852,-287.67 852,-287.67 852,-295.33 852,-295.33 852,-299.17 848.17,-303 844.33,-303"/>
<text text-anchor="middle" x="748.5" y="-287.8" font-family="Arial" font-size="14.00" fill="#cfffac">core/use&#45;cases/affiliateDoctor.js</text>
</g>
<!-- core/index.js&#45;&gt;core/use&#45;cases/affiliateDoctor.js -->
<g id="edge6" class="edge">
<title>core/index.js&#45;&gt;core/use&#45;cases/affiliateDoctor.js</title>
<path fill="none" stroke="#757575" d="M536.27,-257.74C571.88,-263.43 622.46,-271.51 665.2,-278.34"/>
<polygon fill="#757575" stroke="#757575" points="664.89,-281.84 675.32,-279.96 665.99,-274.93 664.89,-281.84"/>
</g>
<!-- core/repositories/doctorScheduleRepository.js -->
<g id="node9" class="node">
<title>core/repositories/doctorScheduleRepository.js</title>
<path fill="none" stroke="#cfffac" d="M312.33,-201C312.33,-201 36.67,-201 36.67,-201 32.83,-201 29,-197.17 29,-193.33 29,-193.33 29,-185.67 29,-185.67 29,-181.83 32.83,-178 36.67,-178 36.67,-178 312.33,-178 312.33,-178 316.17,-178 320,-181.83 320,-185.67 320,-185.67 320,-193.33 320,-193.33 320,-197.17 316.17,-201 312.33,-201"/>
<text text-anchor="middle" x="174.5" y="-185.8" font-family="Arial" font-size="14.00" fill="#cfffac">core/repositories/doctorScheduleRepository.js</text>
</g>
<!-- core/use&#45;cases/getDoctorDetails.js -->
<g id="node10" class="node">
<title>core/use&#45;cases/getDoctorDetails.js</title>
<path fill="none" stroke="#cfffac" d="M279.33,-242C279.33,-242 69.67,-242 69.67,-242 65.83,-242 62,-238.17 62,-234.33 62,-234.33 62,-226.67 62,-226.67 62,-222.83 65.83,-219 69.67,-219 69.67,-219 279.33,-219 279.33,-219 283.17,-219 287,-222.83 287,-226.67 287,-226.67 287,-234.33 287,-234.33 287,-238.17 283.17,-242 279.33,-242"/>
<text text-anchor="middle" x="174.5" y="-226.8" font-family="Arial" font-size="14.00" fill="#cfffac">core/use&#45;cases/getDoctorDetails.js</text>
</g>
<!-- core/use&#45;cases/listDoctorSchedule.js -->
<g id="node11" class="node">
<title>core/use&#45;cases/listDoctorSchedule.js</title>
<path fill="none" stroke="#cfffac" d="M285.83,-283C285.83,-283 63.17,-283 63.17,-283 59.33,-283 55.5,-279.17 55.5,-275.33 55.5,-275.33 55.5,-267.67 55.5,-267.67 55.5,-263.83 59.33,-260 63.17,-260 63.17,-260 285.83,-260 285.83,-260 289.67,-260 293.5,-263.83 293.5,-267.67 293.5,-267.67 293.5,-275.33 293.5,-275.33 293.5,-279.17 289.67,-283 285.83,-283"/>
<text text-anchor="middle" x="174.5" y="-267.8" font-family="Arial" font-size="14.00" fill="#cfffac">core/use&#45;cases/listDoctorSchedule.js</text>
</g>
<!-- core/use&#45;cases/listDoctors.js -->
<g id="node12" class="node">
<title>core/use&#45;cases/listDoctors.js</title>
<path fill="none" stroke="#cfffac" d="M260.83,-324C260.83,-324 88.17,-324 88.17,-324 84.33,-324 80.5,-320.17 80.5,-316.33 80.5,-316.33 80.5,-308.67 80.5,-308.67 80.5,-304.83 84.33,-301 88.17,-301 88.17,-301 260.83,-301 260.83,-301 264.67,-301 268.5,-304.83 268.5,-308.67 268.5,-308.67 268.5,-316.33 268.5,-316.33 268.5,-320.17 264.67,-324 260.83,-324"/>
<text text-anchor="middle" x="174.5" y="-308.8" font-family="Arial" font-size="14.00" fill="#cfffac">core/use&#45;cases/listDoctors.js</text>
</g>
<!-- core/use&#45;cases/updateDoctorDetails.js -->
<g id="node13" class="node">
<title>core/use&#45;cases/updateDoctorDetails.js</title>
<path fill="none" stroke="#cfffac" d="M290.83,-365C290.83,-365 58.17,-365 58.17,-365 54.33,-365 50.5,-361.17 50.5,-357.33 50.5,-357.33 50.5,-349.67 50.5,-349.67 50.5,-345.83 54.33,-342 58.17,-342 58.17,-342 290.83,-342 290.83,-342 294.67,-342 298.5,-345.83 298.5,-349.67 298.5,-349.67 298.5,-357.33 298.5,-357.33 298.5,-361.17 294.67,-365 290.83,-365"/>
<text text-anchor="middle" x="174.5" y="-349.8" font-family="Arial" font-size="14.00" fill="#cfffac">core/use&#45;cases/updateDoctorDetails.js</text>
</g>
<!-- core/use&#45;cases/updateDoctorSchedule.js -->
<g id="node14" class="node">
<title>core/use&#45;cases/updateDoctorSchedule.js</title>
<path fill="none" stroke="#cfffac" d="M298.33,-406C298.33,-406 50.67,-406 50.67,-406 46.83,-406 43,-402.17 43,-398.33 43,-398.33 43,-390.67 43,-390.67 43,-386.83 46.83,-383 50.67,-383 50.67,-383 298.33,-383 298.33,-383 302.17,-383 306,-386.83 306,-390.67 306,-390.67 306,-398.33 306,-398.33 306,-402.17 302.17,-406 298.33,-406"/>
<text text-anchor="middle" x="174.5" y="-390.8" font-family="Arial" font-size="14.00" fill="#cfffac">core/use&#45;cases/updateDoctorSchedule.js</text>
</g>
<!-- index.js -->
<g id="node15" class="node">
<title>index.js</title>
<path fill="none" stroke="#c6c5fe" d="M197.83,-160C197.83,-160 151.17,-160 151.17,-160 147.33,-160 143.5,-156.17 143.5,-152.33 143.5,-152.33 143.5,-144.67 143.5,-144.67 143.5,-140.83 147.33,-137 151.17,-137 151.17,-137 197.83,-137 197.83,-137 201.67,-137 205.5,-140.83 205.5,-144.67 205.5,-144.67 205.5,-152.33 205.5,-152.33 205.5,-156.17 201.67,-160 197.83,-160"/>
<text text-anchor="middle" x="174.5" y="-144.8" font-family="Arial" font-size="14.00" fill="#c6c5fe">index.js</text>
</g>
<!-- index.js&#45;&gt;../config/index.js -->
<g id="edge7" class="edge">
<title>index.js&#45;&gt;../config/index.js</title>
<path fill="none" stroke="#757575" d="M205.85,-146.38C295.03,-140.14 557.79,-121.77 681.57,-113.11"/>
<polygon fill="#757575" stroke="#757575" points="681.94,-116.59 691.68,-112.4 681.46,-109.61 681.94,-116.59"/>
</g>
<!-- index.js&#45;&gt;core/index.js -->
<g id="edge8" class="edge">
<title>index.js&#45;&gt;core/index.js</title>
<path fill="none" stroke="#757575" d="M205.82,-144.52C242.75,-141.28 305.57,-141.11 349,-169.5 375.35,-186.73 359.27,-212.37 385,-230.5 399.06,-240.41 416.74,-245.75 433.51,-248.53"/>
<polygon fill="#757575" stroke="#757575" points="433.41,-252.05 443.8,-249.95 434.37,-245.12 433.41,-252.05"/>
</g>
<!-- modules/http/controllers/index.js -->
<g id="node16" class="node">
<title>modules/http/controllers/index.js</title>
<path fill="none" stroke="#c6c5fe" d="M587.33,-221C587.33,-221 392.67,-221 392.67,-221 388.83,-221 385,-217.17 385,-213.33 385,-213.33 385,-205.67 385,-205.67 385,-201.83 388.83,-198 392.67,-198 392.67,-198 587.33,-198 587.33,-198 591.17,-198 595,-201.83 595,-205.67 595,-205.67 595,-213.33 595,-213.33 595,-217.17 591.17,-221 587.33,-221"/>
<text text-anchor="middle" x="490" y="-205.8" font-family="Arial" font-size="14.00" fill="#c6c5fe">modules/http/controllers/index.js</text>
</g>
<!-- index.js&#45;&gt;modules/http/controllers/index.js -->
<g id="edge9" class="edge">
<title>index.js&#45;&gt;modules/http/controllers/index.js</title>
<path fill="none" stroke="#757575" d="M205.72,-148.66C240.95,-149.64 300.52,-153.77 349,-169.5 366.41,-175.15 367.8,-183.25 385,-189.5 391.01,-191.68 397.31,-193.64 403.7,-195.4"/>
<polygon fill="#757575" stroke="#757575" points="403.25,-198.9 413.8,-197.99 404.99,-192.12 403.25,-198.9"/>
</g>
<!-- modules/http/routes/index.js -->
<g id="node17" class="node">
<title>modules/http/routes/index.js</title>
<path fill="none" stroke="#c6c5fe" d="M574.83,-180C574.83,-180 405.17,-180 405.17,-180 401.33,-180 397.5,-176.17 397.5,-172.33 397.5,-172.33 397.5,-164.67 397.5,-164.67 397.5,-160.83 401.33,-157 405.17,-157 405.17,-157 574.83,-157 574.83,-157 578.67,-157 582.5,-160.83 582.5,-164.67 582.5,-164.67 582.5,-172.33 582.5,-172.33 582.5,-176.17 578.67,-180 574.83,-180"/>
<text text-anchor="middle" x="490" y="-164.8" font-family="Arial" font-size="14.00" fill="#c6c5fe">modules/http/routes/index.js</text>
</g>
<!-- index.js&#45;&gt;modules/http/routes/index.js -->
<g id="edge10" class="edge">
<title>index.js&#45;&gt;modules/http/routes/index.js</title>
<path fill="none" stroke="#757575" d="M205.56,-150.42C247.09,-153.07 324.07,-157.98 387.33,-162.01"/>
<polygon fill="#757575" stroke="#757575" points="387.15,-165.51 397.36,-162.65 387.6,-158.52 387.15,-165.51"/>
</g>
<!-- modules/http/server.js -->
<g id="node18" class="node">
<title>modules/http/server.js</title>
<path fill="none" stroke="#cfffac" d="M556.83,-100C556.83,-100 423.17,-100 423.17,-100 419.33,-100 415.5,-96.17 415.5,-92.33 415.5,-92.33 415.5,-84.67 415.5,-84.67 415.5,-80.83 419.33,-77 423.17,-77 423.17,-77 556.83,-77 556.83,-77 560.67,-77 564.5,-80.83 564.5,-84.67 564.5,-84.67 564.5,-92.33 564.5,-92.33 564.5,-96.17 560.67,-100 556.83,-100"/>
<text text-anchor="middle" x="490" y="-84.8" font-family="Arial" font-size="14.00" fill="#cfffac">modules/http/server.js</text>
</g>
<!-- index.js&#45;&gt;modules/http/server.js -->
<g id="edge11" class="edge">
<title>index.js&#45;&gt;modules/http/server.js</title>
<path fill="none" stroke="#757575" d="M205.56,-142.75C254.32,-133.41 351.93,-114.73 418.85,-101.93"/>
<polygon fill="#757575" stroke="#757575" points="419.74,-105.32 428.91,-100 418.43,-98.44 419.74,-105.32"/>
</g>
<!-- modules/index.js -->
<g id="node19" class="node">
<title>modules/index.js</title>
<path fill="none" stroke="#c6c5fe" d="M541.33,-59C541.33,-59 438.67,-59 438.67,-59 434.83,-59 431,-55.17 431,-51.33 431,-51.33 431,-43.67 431,-43.67 431,-39.83 434.83,-36 438.67,-36 438.67,-36 541.33,-36 541.33,-36 545.17,-36 549,-39.83 549,-43.67 549,-43.67 549,-51.33 549,-51.33 549,-55.17 545.17,-59 541.33,-59"/>
<text text-anchor="middle" x="490" y="-43.8" font-family="Arial" font-size="14.00" fill="#c6c5fe">modules/index.js</text>
</g>
<!-- index.js&#45;&gt;modules/index.js -->
<g id="edge12" class="edge">
<title>index.js&#45;&gt;modules/index.js</title>
<path fill="none" stroke="#757575" d="M201.12,-136.87C240.1,-119.58 316.97,-87.02 385,-67.5 396.46,-64.21 408.79,-61.31 420.81,-58.8"/>
<polygon fill="#757575" stroke="#757575" points="421.69,-62.19 430.8,-56.79 420.31,-55.33 421.69,-62.19"/>
</g>
<!-- modules/http/controllers/doctors.js -->
<g id="node24" class="node">
<title>modules/http/controllers/doctors.js</title>
<path fill="none" stroke="#cfffac" d="M851.83,-221C851.83,-221 645.17,-221 645.17,-221 641.33,-221 637.5,-217.17 637.5,-213.33 637.5,-213.33 637.5,-205.67 637.5,-205.67 637.5,-201.83 641.33,-198 645.17,-198 645.17,-198 851.83,-198 851.83,-198 855.67,-198 859.5,-201.83 859.5,-205.67 859.5,-205.67 859.5,-213.33 859.5,-213.33 859.5,-217.17 855.67,-221 851.83,-221"/>
<text text-anchor="middle" x="748.5" y="-205.8" font-family="Arial" font-size="14.00" fill="#cfffac">modules/http/controllers/doctors.js</text>
</g>
<!-- modules/http/controllers/index.js&#45;&gt;modules/http/controllers/doctors.js -->
<g id="edge15" class="edge">
<title>modules/http/controllers/index.js&#45;&gt;modules/http/controllers/doctors.js</title>
<path fill="none" stroke="#757575" d="M595.33,-209.5C605.84,-209.5 616.57,-209.5 627.23,-209.5"/>
<polygon fill="#757575" stroke="#757575" points="627.42,-213 637.42,-209.5 627.42,-206 627.42,-213"/>
</g>
<!-- modules/http/routes/doctors.js -->
<g id="node26" class="node">
<title>modules/http/routes/doctors.js</title>
<path fill="none" stroke="#cfffac" d="M839.33,-180C839.33,-180 657.67,-180 657.67,-180 653.83,-180 650,-176.17 650,-172.33 650,-172.33 650,-164.67 650,-164.67 650,-160.83 653.83,-157 657.67,-157 657.67,-157 839.33,-157 839.33,-157 843.17,-157 847,-160.83 847,-164.67 847,-164.67 847,-172.33 847,-172.33 847,-176.17 843.17,-180 839.33,-180"/>
<text text-anchor="middle" x="748.5" y="-164.8" font-family="Arial" font-size="14.00" fill="#cfffac">modules/http/routes/doctors.js</text>
</g>
<!-- modules/http/routes/index.js&#45;&gt;modules/http/routes/doctors.js -->
<g id="edge16" class="edge">
<title>modules/http/routes/index.js&#45;&gt;modules/http/routes/doctors.js</title>
<path fill="none" stroke="#757575" d="M582.52,-168.5C601.05,-168.5 620.71,-168.5 639.75,-168.5"/>
<polygon fill="#757575" stroke="#757575" points="639.94,-172 649.94,-168.5 639.94,-165 639.94,-172"/>
</g>
<!-- modules/index.js&#45;&gt;../config/index.js -->
<g id="edge17" class="edge">
<title>modules/index.js&#45;&gt;../config/index.js</title>
<path fill="none" stroke="#757575" d="M549.19,-57.92C564.16,-60.81 580.22,-64.1 595,-67.5 629.56,-75.46 668.14,-85.84 697.85,-94.17"/>
<polygon fill="#757575" stroke="#757575" points="696.99,-97.57 707.56,-96.91 698.89,-90.83 696.99,-97.57"/>
</g>
<!-- modules/database/postgres/index.js -->
<g id="node20" class="node">
<title>modules/database/postgres/index.js</title>
<path fill="none" stroke="#c6c5fe" d="M857.33,-23C857.33,-23 639.67,-23 639.67,-23 635.83,-23 632,-19.17 632,-15.33 632,-15.33 632,-7.67 632,-7.67 632,-3.83 635.83,0 639.67,0 639.67,0 857.33,0 857.33,0 861.17,0 865,-3.83 865,-7.67 865,-7.67 865,-15.33 865,-15.33 865,-19.17 861.17,-23 857.33,-23"/>
<text text-anchor="middle" x="748.5" y="-7.8" font-family="Arial" font-size="14.00" fill="#c6c5fe">modules/database/postgres/index.js</text>
</g>
<!-- modules/index.js&#45;&gt;modules/database/postgres/index.js -->
<g id="edge18" class="edge">
<title>modules/index.js&#45;&gt;modules/database/postgres/index.js</title>
<path fill="none" stroke="#757575" d="M549.2,-39.33C580.41,-34.95 619.61,-29.45 654.89,-24.5"/>
<polygon fill="#757575" stroke="#757575" points="655.8,-27.9 665.22,-23.05 654.83,-20.97 655.8,-27.9"/>
</g>
<!-- modules/logger/logger.cjs -->
<g id="node28" class="node">
<title>modules/logger/logger.cjs</title>
<path fill="none" stroke="#cfffac" d="M825.83,-64C825.83,-64 671.17,-64 671.17,-64 667.33,-64 663.5,-60.17 663.5,-56.33 663.5,-56.33 663.5,-48.67 663.5,-48.67 663.5,-44.83 667.33,-41 671.17,-41 671.17,-41 825.83,-41 825.83,-41 829.67,-41 833.5,-44.83 833.5,-48.67 833.5,-48.67 833.5,-56.33 833.5,-56.33 833.5,-60.17 829.67,-64 825.83,-64"/>
<text text-anchor="middle" x="748.5" y="-48.8" font-family="Arial" font-size="14.00" fill="#cfffac">modules/logger/logger.cjs</text>
</g>
<!-- modules/index.js&#45;&gt;modules/logger/logger.cjs -->
<g id="edge19" class="edge">
<title>modules/index.js&#45;&gt;modules/logger/logger.cjs</title>
<path fill="none" stroke="#757575" d="M549.2,-48.63C579.88,-49.23 618.26,-49.98 653.07,-50.66"/>
<polygon fill="#757575" stroke="#757575" points="653.19,-54.16 663.26,-50.86 653.33,-47.16 653.19,-54.16"/>
</g>
<!-- modules/database/postgres/models/index.js -->
<g id="node21" class="node">
<title>modules/database/postgres/models/index.js</title>
<path fill="none" stroke="#c6c5fe" d="M1175.33,-23C1175.33,-23 909.67,-23 909.67,-23 905.83,-23 902,-19.17 902,-15.33 902,-15.33 902,-7.67 902,-7.67 902,-3.83 905.83,0 909.67,0 909.67,0 1175.33,0 1175.33,0 1179.17,0 1183,-3.83 1183,-7.67 1183,-7.67 1183,-15.33 1183,-15.33 1183,-19.17 1179.17,-23 1175.33,-23"/>
<text text-anchor="middle" x="1042.5" y="-7.8" font-family="Arial" font-size="14.00" fill="#c6c5fe">modules/database/postgres/models/index.js</text>
</g>
<!-- modules/database/postgres/index.js&#45;&gt;modules/database/postgres/models/index.js -->
<g id="edge13" class="edge">
<title>modules/database/postgres/index.js&#45;&gt;modules/database/postgres/models/index.js</title>
<path fill="none" stroke="#757575" d="M865.33,-11.5C873.91,-11.5 882.64,-11.5 891.39,-11.5"/>
<polygon fill="#757575" stroke="#757575" points="891.66,-15 901.66,-11.5 891.66,-8 891.66,-15"/>
</g>
<!-- modules/database/postgres/models/doctors.js -->
<g id="node23" class="node">
<title>modules/database/postgres/models/doctors.js</title>
<path fill="none" stroke="#cfffac" d="M1504.33,-23C1504.33,-23 1226.67,-23 1226.67,-23 1222.83,-23 1219,-19.17 1219,-15.33 1219,-15.33 1219,-7.67 1219,-7.67 1219,-3.83 1222.83,0 1226.67,0 1226.67,0 1504.33,0 1504.33,0 1508.17,0 1512,-3.83 1512,-7.67 1512,-7.67 1512,-15.33 1512,-15.33 1512,-19.17 1508.17,-23 1504.33,-23"/>
<text text-anchor="middle" x="1365.5" y="-7.8" font-family="Arial" font-size="14.00" fill="#cfffac">modules/database/postgres/models/doctors.js</text>
</g>
<!-- modules/database/postgres/models/index.js&#45;&gt;modules/database/postgres/models/doctors.js -->
<g id="edge14" class="edge">
<title>modules/database/postgres/models/index.js&#45;&gt;modules/database/postgres/models/doctors.js</title>
<path fill="none" stroke="#757575" d="M1183.36,-11.5C1191.71,-11.5 1200.13,-11.5 1208.54,-11.5"/>
<polygon fill="#757575" stroke="#757575" points="1208.78,-15 1218.78,-11.5 1208.78,-8 1208.78,-15"/>
</g>
<!-- modules/database/postgres/models/doctorSchedules.js -->
<g id="node22" class="node">
<title>modules/database/postgres/models/doctorSchedules.js</title>
<path fill="none" stroke="#cfffac" d="M341.33,-447C341.33,-447 7.67,-447 7.67,-447 3.83,-447 0,-443.17 0,-439.33 0,-439.33 0,-431.67 0,-431.67 0,-427.83 3.83,-424 7.67,-424 7.67,-424 341.33,-424 341.33,-424 345.17,-424 349,-427.83 349,-431.67 349,-431.67 349,-439.33 349,-439.33 349,-443.17 345.17,-447 341.33,-447"/>
<text text-anchor="middle" x="174.5" y="-431.8" font-family="Arial" font-size="14.00" fill="#cfffac">modules/database/postgres/models/doctorSchedules.js</text>
</g>
<!-- modules/http/routes/appointments.js -->
<g id="node25" class="node">
<title>modules/http/routes/appointments.js</title>
<path fill="none" stroke="#cfffac" d="M284.33,-488C284.33,-488 64.67,-488 64.67,-488 60.83,-488 57,-484.17 57,-480.33 57,-480.33 57,-472.67 57,-472.67 57,-468.83 60.83,-465 64.67,-465 64.67,-465 284.33,-465 284.33,-465 288.17,-465 292,-468.83 292,-472.67 292,-472.67 292,-480.33 292,-480.33 292,-484.17 288.17,-488 284.33,-488"/>
<text text-anchor="middle" x="174.5" y="-472.8" font-family="Arial" font-size="14.00" fill="#cfffac">modules/http/routes/appointments.js</text>
</g>
<!-- modules/http/schemas/ajv&#45;compile.js -->
<g id="node27" class="node">
<title>modules/http/schemas/ajv&#45;compile.js</title>
<path fill="none" stroke="#cfffac" d="M286.33,-529C286.33,-529 62.67,-529 62.67,-529 58.83,-529 55,-525.17 55,-521.33 55,-521.33 55,-513.67 55,-513.67 55,-509.83 58.83,-506 62.67,-506 62.67,-506 286.33,-506 286.33,-506 290.17,-506 294,-509.83 294,-513.67 294,-513.67 294,-521.33 294,-521.33 294,-525.17 290.17,-529 286.33,-529"/>
<text text-anchor="middle" x="174.5" y="-513.8" font-family="Arial" font-size="14.00" fill="#cfffac">modules/http/schemas/ajv&#45;compile.js</text>
</g>
<!-- modules/logger/index.js -->
<g id="node29" class="node">
<title>modules/logger/index.js</title>
<path fill="none" stroke="#cfffac" d="M246.33,-570C246.33,-570 102.67,-570 102.67,-570 98.83,-570 95,-566.17 95,-562.33 95,-562.33 95,-554.67 95,-554.67 95,-550.83 98.83,-547 102.67,-547 102.67,-547 246.33,-547 246.33,-547 250.17,-547 254,-550.83 254,-554.67 254,-554.67 254,-562.33 254,-562.33 254,-566.17 250.17,-570 246.33,-570"/>
<text text-anchor="middle" x="174.5" y="-554.8" font-family="Arial" font-size="14.00" fill="#cfffac">modules/logger/index.js</text>
</g>
</g>
</svg>
